# File created by Blade
# Date/Time:  Thu Jan 22 19:49:01 2015
# Frame Rate: 120.000 fps
#------------------------------------------------------
:FULLY-SPECIFIED
:DEGREES
3370
root -1.250076 5.691483 -8.690493 -19.044419 -1.096333 -2.552772
RightUpLeg -104.870713 -10.139226 -10.660093
RightLeg 149.261843 -0.000000 -0.000000
RightFoot -27.894431 -8.259996 -7.044389
RightToeBase -11.906307 -0.000000 0.000000
LeftUpLeg -113.962486 2.609466 -4.913860
LeftLeg 147.383277 -0.000000 -0.000000
LeftFoot -22.888963 1.536261 -3.464386
LeftToeBase -1.258065 -0.000000 0.000000
Spine 58.358232 1.701922 -0.730755
RightShoulder -4.439054 -13.996497 -6.023870
RightArm 33.822972 -42.572037 63.820314
RightForeArm 12.835979 -0.000000 6.646232
RightHand 7.257065 -0.000000 6.642245
RightHandThumb1 -24.326973 -0.000000 -32.862282
LeftShoulder -13.218161 1.604580 12.887395
LeftArm 20.423544 50.996039 -76.588651
LeftForeArm -5.588412 -0.000000 12.616182
LeftHand -14.762772 0.000000 10.108419
LeftHandThumb1 -26.253704 0.000000 33.147579
Head -22.256294 -7.289961 -7.383597
3371
root -1.237453 5.704712 -8.612712 -18.811367 -1.484823 -2.460608
RightUpLeg -105.001716 -9.936042 -10.621060
RightLeg 149.385846 -0.000000 -0.000000
RightFoot -28.043501 -8.514914 -6.918691
RightToeBase -11.915168 -0.000000 0.000000
LeftUpLeg -113.937478 2.754984 -4.843462
LeftLeg 147.682126 -0.000000 -0.000000
LeftFoot -23.238533 1.974375 -3.349847
LeftToeBase -1.290082 -0.000000 0.000000
Spine 58.654756 1.748170 -0.819265
RightShoulder -4.387321 -13.909149 -6.025461
RightArm 34.059471 -42.522059 63.511229
RightForeArm 12.697612 -0.000000 6.579450
RightHand 7.264436 -0.000000 6.582979
RightHandThumb1 -24.326973 -0.000000 -32.862282
LeftShoulder -13.258984 1.413403 12.769000
LeftArm 20.135308 50.709240 -76.862784
LeftForeArm -5.185226 -0.000000 12.166466
LeftHand -14.335164 -0.000000 9.097867
LeftHandThumb1 -26.253704 0.000000 33.147579
Head -22.352877 -7.236307 -7.417251
3372
root -1.220375 5.717737 -8.535423 -18.506454 -1.862445 -2.372393
RightUpLeg -105.201073 -9.814744 -10.602515
RightLeg 149.496693 -0.000000 -0.000000
RightFoot -28.144596 -8.743875 -6.875980
RightToeBase -11.896120 -0.000000 0.000000
LeftUpLeg -113.985326 2.853494 -4.757073
LeftLeg 147.973914 -0.000000 -0.000000
LeftFoot -23.550899 2.243592 -3.427096
LeftToeBase -0.519421 -0.000000 0.000000
Spine 58.879312 1.773291 -0.849478
RightShoulder -4.480685 -13.735688 -6.031849
RightArm 34.296103 -42.593102 63.191622
RightForeArm 12.396801 -0.000000 6.496930
RightHand 7.234809 0.000000 6.801941
RightHandThumb1 -24.326973 -0.000000 -32.862282
LeftShoulder -13.256154 1.215948 12.556679
LeftArm 19.908212 50.525117 -76.950608
LeftForeArm -4.864713 -0.000000 11.781431
LeftHand -13.809786 -0.000000 7.636971
LeftHandThumb1 -26.253704 0.000000 33.147579
Head -22.434830 -7.286211 -7.535856
3373
root -1.208287 5.738809 -8.461983 -18.192172 -2.259458 -2.289265
RightUpLeg -105.379890 -9.659026 -10.562075
RightLeg 149.577326 -0.000000 -0.000000
RightFoot -28.274480 -8.865260 -6.719844
RightToeBase -11.811863 -0.000000 0.000000
LeftUpLeg -113.992193 3.024286 -4.542576
LeftLeg 148.253953 -0.000000 -0.000000
LeftFoot -23.753731 2.153192 -3.349593
LeftToeBase -0.572776 -0.000000 0.000000
Spine 59.125076 1.811769 -0.932543
RightShoulder -4.528057 -13.656503 -6.013311
RightArm 34.598522 -42.541188 62.847409
RightForeArm 12.101270 -0.000000 6.482123
RightHand 7.190221 0.000000 6.538521
RightHandThumb1 -24.326973 -0.000000 -32.862282
LeftShoulder -13.277054 1.101069 12.334388
LeftArm 19.768856 50.236644 -76.925758
LeftForeArm -4.510684 -0.000000 11.489267
LeftHand -13.310287 0.000000 6.296050
LeftHandThumb1 -26.253704 0.000000 33.147579
Head -22.557779 -7.291363 -7.548597
